<?xml version="1.0" standalone="no"?>
<!DOCTYPE svg PUBLIC "-//W3C//DTD SVG 20010904//EN"
 "http://www.w3.org/TR/2001/REC-SVG-20010904/DTD/svg10.dtd">
<svg version="1.0" xmlns="http://www.w3.org/2000/svg"
 width="248.000000pt" height="248.000000pt" viewBox="0 0 248.000000 248.000000"
 preserveAspectRatio="xMidYMid meet">
<metadata>
Created by potrace 1.11, written by Peter Selinger 2001-2013
</metadata>
<g transform="translate(0.000000,248.000000) scale(0.100000,-0.100000)"
fill="#000000" stroke="none">
<path d="M566 1800 c-65 -20 -106 -86 -106 -167 1 -141 121 -224 205 -140 52
52 70 156 42 236 -20 58 -82 89 -141 71z"/>
<path d="M1827 1766 c-57 -62 -48 -202 18 -274 30 -33 39 -37 83 -37 36 0 56
6 72 20 73 64 63 202 -18 279 -23 21 -44 30 -81 34 -44 4 -52 1 -74 -22z"/>
<path d="M997 1463 c-4 -3 -7 -25 -7 -49 0 -35 5 -47 31 -68 35 -30 106 -35
148 -12 22 12 29 11 61 -5 35 -18 89 -20 142 -3 38 12 54 95 25 132 -14 17
-37 -3 -37 -34 0 -12 -7 -30 -16 -38 -28 -28 -58 -20 -136 36 -15 10 -22 8
-46 -15 -34 -33 -79 -36 -110 -7 -12 12 -22 32 -22 45 0 24 -18 33 -33 18z"/>
<path d="M271 1422 c-51 -20 -66 -39 -58 -74 9 -32 40 -46 130 -54 103 -9 181
2 214 30 27 23 27 24 9 51 -10 14 -36 35 -59 46 -54 24 -174 25 -236 1z"/>
<path d="M1981 1424 c-91 -24 -102 -47 -47 -89 38 -29 113 -45 221 -46 89 -1
125 12 125 45 0 40 -53 72 -149 90 -97 19 -82 19 -150 0z"/>
<path d="M1751 978 c-13 -53 -37 -113 -69 -176 -23 -46 -113 -154 -145 -175
-107 -70 -195 -97 -313 -97 -164 0 -303 72 -402 209 -43 59 -62 96 -101 194
-11 28 -36 33 -91 18 -21 -6 -24 -12 -22 -36 5 -41 26 -110 51 -169 23 -52 18
-66 -22 -66 -10 0 -17 -5 -15 -11 5 -15 7 -15 60 0 61 17 113 7 150 -29 26
-26 28 -35 28 -100 0 -65 2 -71 16 -59 13 11 21 10 47 -4 95 -49 140 -59 262
-60 105 -1 130 3 205 27 95 31 162 62 227 106 l44 30 9 -25 c15 -39 18 -30 13
39 -5 61 -4 65 21 81 19 13 40 16 76 13 38 -4 50 -2 50 8 0 8 -7 14 -15 14
-19 0 -19 2 5 43 25 41 60 177 60 229 0 35 -2 38 -29 38 -16 0 -42 3 -58 6
-28 5 -29 4 -42 -48z"/>
</g>
</svg>
